<mxfile host="www.draw.io" modified="2019-12-09T11:02:36.693Z" agent="Mozilla/5.0 (Windows NT 10.0; Win64; x64) AppleWebKit/537.36 (KHTML, like Gecko) Chrome/78.0.3904.108 Safari/537.36" etag="ZDi8vjWqUEB5YqWPNpDL" version="12.3.8" type="github" pages="1">
  <diagram name="Page-1" id="2ca16b54-16f6-2749-3443-fa8db7711227">
    <mxGraphModel dx="1422" dy="5724" grid="1" gridSize="10" guides="1" tooltips="1" connect="1" arrows="1" fold="1" page="1" pageScale="1" pageWidth="1169" pageHeight="827" background="#ffffff" math="0" shadow="0">
      <root>
        <mxCell id="0"/>
        <mxCell id="1" parent="0"/>
        <mxCell id="9qEQG3Xhn_lhqBpE3Py7-43" value="" style="rounded=0;whiteSpace=wrap;html=1;fillColor=#FFFFFF;" vertex="1" parent="1">
          <mxGeometry x="90" y="-4750" width="530" height="280" as="geometry"/>
        </mxCell>
        <mxCell id="9qEQG3Xhn_lhqBpE3Py7-42" value="" style="rounded=0;whiteSpace=wrap;html=1;fillColor=#FFFFFF;" vertex="1" parent="1">
          <mxGeometry x="90" y="-4430" width="530" height="280" as="geometry"/>
        </mxCell>
        <mxCell id="9qEQG3Xhn_lhqBpE3Py7-7" style="edgeStyle=orthogonalEdgeStyle;rounded=0;orthogonalLoop=1;jettySize=auto;html=1;exitX=1;exitY=0.5;exitDx=0;exitDy=0;entryX=0;entryY=0.5;entryDx=0;entryDy=0;" edge="1" parent="1" source="9qEQG3Xhn_lhqBpE3Py7-10" target="9qEQG3Xhn_lhqBpE3Py7-9">
          <mxGeometry relative="1" as="geometry"/>
        </mxCell>
        <mxCell id="9qEQG3Xhn_lhqBpE3Py7-8" value="&lt;div style=&quot;box-sizing: border-box ; width: 100% ; background: #e4e4e4 ; padding: 2px&quot;&gt;bills--订单表&lt;/div&gt;&lt;table style=&quot;width: 100% ; font-size: 1em&quot; cellpadding=&quot;2&quot; cellspacing=&quot;0&quot;&gt;&lt;tbody&gt;&lt;tr&gt;&lt;td&gt;&lt;br&gt;&lt;/td&gt;&lt;td&gt;order_id&lt;/td&gt;&lt;/tr&gt;&lt;tr&gt;&lt;td&gt;&lt;br&gt;&lt;/td&gt;&lt;td&gt;pos_id&lt;/td&gt;&lt;/tr&gt;&lt;tr&gt;&lt;td&gt;&lt;/td&gt;&lt;td&gt;work_day&lt;/td&gt;&lt;/tr&gt;&lt;/tbody&gt;&lt;/table&gt;" style="verticalAlign=top;align=left;overflow=fill;html=1;rounded=0;shadow=0;comic=0;labelBackgroundColor=none;strokeWidth=1;fontFamily=Verdana;fontSize=12" vertex="1" parent="1">
          <mxGeometry x="200" y="-4920" width="180" height="90" as="geometry"/>
        </mxCell>
        <mxCell id="9qEQG3Xhn_lhqBpE3Py7-9" value="&lt;div style=&quot;box-sizing: border-box ; width: 100% ; background: #e4e4e4 ; padding: 2px&quot;&gt;KPARTITMES--菜品表&lt;/div&gt;&lt;table style=&quot;width: 100% ; font-size: 1em&quot; cellpadding=&quot;2&quot; cellspacing=&quot;0&quot;&gt;&lt;tbody&gt;&lt;tr&gt;&lt;td&gt;&lt;br&gt;&lt;/td&gt;&lt;td&gt;&lt;span style=&quot;color: rgb(23 , 43 , 77) ; font-family: , &amp;#34;blinkmacsystemfont&amp;#34; , &amp;#34;segoe ui&amp;#34; , &amp;#34;roboto&amp;#34; , &amp;#34;oxygen&amp;#34; , &amp;#34;ubuntu&amp;#34; , &amp;#34;fira sans&amp;#34; , &amp;#34;droid sans&amp;#34; , &amp;#34;helvetica neue&amp;#34; , sans-serif ; font-size: 14px ; white-space: normal ; background-color: rgb(255 , 255 , 255)&quot;&gt;BCODE -订单号&lt;/span&gt;&lt;br&gt;&lt;/td&gt;&lt;/tr&gt;&lt;tr&gt;&lt;td&gt;&lt;br&gt;&lt;/td&gt;&lt;td&gt;PCODE -产品编号&lt;/td&gt;&lt;/tr&gt;&lt;tr&gt;&lt;td&gt;&lt;/td&gt;&lt;td&gt;PNAME -产品名称&lt;/td&gt;&lt;/tr&gt;&lt;/tbody&gt;&lt;/table&gt;" style="verticalAlign=top;align=left;overflow=fill;html=1;rounded=0;shadow=0;comic=0;labelBackgroundColor=none;strokeWidth=1;fontFamily=Verdana;fontSize=12" vertex="1" parent="1">
          <mxGeometry x="610" y="-4920" width="180" height="90" as="geometry"/>
        </mxCell>
        <mxCell id="9qEQG3Xhn_lhqBpE3Py7-10" value="1---order_id &amp;lt;---&amp;gt; BCODE---N" style="text;html=1;align=center;verticalAlign=middle;resizable=0;points=[];;autosize=1;" vertex="1" parent="1">
          <mxGeometry x="400" y="-4885" width="170" height="20" as="geometry"/>
        </mxCell>
        <mxCell id="9qEQG3Xhn_lhqBpE3Py7-11" style="edgeStyle=orthogonalEdgeStyle;rounded=0;orthogonalLoop=1;jettySize=auto;html=1;exitX=1;exitY=0.5;exitDx=0;exitDy=0;entryX=0;entryY=0.5;entryDx=0;entryDy=0;" edge="1" parent="1" source="9qEQG3Xhn_lhqBpE3Py7-8" target="9qEQG3Xhn_lhqBpE3Py7-10">
          <mxGeometry relative="1" as="geometry">
            <mxPoint x="380" y="-4875" as="sourcePoint"/>
            <mxPoint x="610" y="-4875" as="targetPoint"/>
          </mxGeometry>
        </mxCell>
        <mxCell id="9qEQG3Xhn_lhqBpE3Py7-12" value="&lt;b&gt;&lt;font style=&quot;font-size: 18px&quot;&gt;controller&lt;/font&gt;&lt;/b&gt;" style="rounded=0;whiteSpace=wrap;html=1;fillColor=#CCFFFF;" vertex="1" parent="1">
          <mxGeometry x="255" y="-4740" width="180" height="40" as="geometry"/>
        </mxCell>
        <mxCell id="9qEQG3Xhn_lhqBpE3Py7-38" style="edgeStyle=orthogonalEdgeStyle;rounded=0;orthogonalLoop=1;jettySize=auto;html=1;exitX=0.5;exitY=0;exitDx=0;exitDy=0;entryX=0.5;entryY=1;entryDx=0;entryDy=0;" edge="1" parent="1" source="9qEQG3Xhn_lhqBpE3Py7-14" target="9qEQG3Xhn_lhqBpE3Py7-12">
          <mxGeometry relative="1" as="geometry"/>
        </mxCell>
        <mxCell id="9qEQG3Xhn_lhqBpE3Py7-14" value="&lt;font style=&quot;font-size: 18px&quot;&gt;&lt;b&gt;facade&lt;/b&gt;&lt;/font&gt;" style="rounded=0;whiteSpace=wrap;html=1;fillColor=#CCE5FF;" vertex="1" parent="1">
          <mxGeometry x="280" y="-4669" width="130" height="40" as="geometry"/>
        </mxCell>
        <mxCell id="9qEQG3Xhn_lhqBpE3Py7-36" style="edgeStyle=orthogonalEdgeStyle;rounded=0;orthogonalLoop=1;jettySize=auto;html=1;exitX=0.5;exitY=0;exitDx=0;exitDy=0;entryX=0.25;entryY=1;entryDx=0;entryDy=0;" edge="1" parent="1" source="9qEQG3Xhn_lhqBpE3Py7-15" target="9qEQG3Xhn_lhqBpE3Py7-14">
          <mxGeometry relative="1" as="geometry"/>
        </mxCell>
        <mxCell id="9qEQG3Xhn_lhqBpE3Py7-15" value="&lt;font style=&quot;font-size: 18px&quot;&gt;&lt;b&gt;template&lt;/b&gt;&lt;/font&gt;" style="rounded=1;whiteSpace=wrap;html=1;fillColor=#CCCCFF;" vertex="1" parent="1">
          <mxGeometry x="170" y="-4560" width="120" height="60" as="geometry"/>
        </mxCell>
        <mxCell id="9qEQG3Xhn_lhqBpE3Py7-37" style="edgeStyle=orthogonalEdgeStyle;rounded=0;orthogonalLoop=1;jettySize=auto;html=1;exitX=0.5;exitY=0;exitDx=0;exitDy=0;entryX=0.75;entryY=1;entryDx=0;entryDy=0;" edge="1" parent="1" source="9qEQG3Xhn_lhqBpE3Py7-16" target="9qEQG3Xhn_lhqBpE3Py7-14">
          <mxGeometry relative="1" as="geometry"/>
        </mxCell>
        <mxCell id="9qEQG3Xhn_lhqBpE3Py7-16" value="&lt;font style=&quot;font-size: 18px&quot;&gt;&lt;b&gt;template&lt;/b&gt;&lt;/font&gt;" style="rounded=1;whiteSpace=wrap;html=1;fillColor=#CCCCFF;" vertex="1" parent="1">
          <mxGeometry x="410" y="-4560" width="120" height="60" as="geometry"/>
        </mxCell>
        <mxCell id="9qEQG3Xhn_lhqBpE3Py7-29" style="edgeStyle=orthogonalEdgeStyle;rounded=0;orthogonalLoop=1;jettySize=auto;html=1;exitX=0.5;exitY=0;exitDx=0;exitDy=0;entryX=0.5;entryY=1;entryDx=0;entryDy=0;" edge="1" parent="1" source="9qEQG3Xhn_lhqBpE3Py7-17" target="9qEQG3Xhn_lhqBpE3Py7-15">
          <mxGeometry relative="1" as="geometry"/>
        </mxCell>
        <mxCell id="9qEQG3Xhn_lhqBpE3Py7-17" value="&lt;font style=&quot;font-size: 18px&quot;&gt;&lt;b&gt;processor&lt;/b&gt;&lt;/font&gt;" style="shape=hexagon;perimeter=hexagonPerimeter2;whiteSpace=wrap;html=1;fillColor=#FFFFCC;" vertex="1" parent="1">
          <mxGeometry x="110" y="-4406" width="120" height="80" as="geometry"/>
        </mxCell>
        <mxCell id="9qEQG3Xhn_lhqBpE3Py7-34" style="edgeStyle=orthogonalEdgeStyle;rounded=0;orthogonalLoop=1;jettySize=auto;html=1;exitX=0.625;exitY=0;exitDx=0;exitDy=0;entryX=0.25;entryY=1;entryDx=0;entryDy=0;" edge="1" parent="1" source="9qEQG3Xhn_lhqBpE3Py7-18" target="9qEQG3Xhn_lhqBpE3Py7-16">
          <mxGeometry relative="1" as="geometry"/>
        </mxCell>
        <mxCell id="9qEQG3Xhn_lhqBpE3Py7-35" style="edgeStyle=orthogonalEdgeStyle;rounded=0;orthogonalLoop=1;jettySize=auto;html=1;exitX=0.375;exitY=0;exitDx=0;exitDy=0;entryX=0.75;entryY=1;entryDx=0;entryDy=0;" edge="1" parent="1" source="9qEQG3Xhn_lhqBpE3Py7-18" target="9qEQG3Xhn_lhqBpE3Py7-15">
          <mxGeometry relative="1" as="geometry"/>
        </mxCell>
        <mxCell id="9qEQG3Xhn_lhqBpE3Py7-18" value="&lt;b style=&quot;font-size: 18px ; white-space: normal&quot;&gt;processor&lt;/b&gt;" style="shape=hexagon;perimeter=hexagonPerimeter2;whiteSpace=wrap;html=1;fillColor=#FFFFCC;" vertex="1" parent="1">
          <mxGeometry x="260" y="-4406" width="120" height="80" as="geometry"/>
        </mxCell>
        <mxCell id="9qEQG3Xhn_lhqBpE3Py7-33" style="edgeStyle=orthogonalEdgeStyle;rounded=0;orthogonalLoop=1;jettySize=auto;html=1;exitX=0.5;exitY=0;exitDx=0;exitDy=0;entryX=0.5;entryY=1;entryDx=0;entryDy=0;" edge="1" parent="1" source="9qEQG3Xhn_lhqBpE3Py7-19" target="9qEQG3Xhn_lhqBpE3Py7-16">
          <mxGeometry relative="1" as="geometry"/>
        </mxCell>
        <mxCell id="9qEQG3Xhn_lhqBpE3Py7-19" value="&lt;b style=&quot;font-size: 18px ; white-space: normal&quot;&gt;processor&lt;/b&gt;" style="shape=hexagon;perimeter=hexagonPerimeter2;whiteSpace=wrap;html=1;fillColor=#FFFFCC;" vertex="1" parent="1">
          <mxGeometry x="410" y="-4406" width="120" height="80" as="geometry"/>
        </mxCell>
        <mxCell id="9qEQG3Xhn_lhqBpE3Py7-24" style="edgeStyle=orthogonalEdgeStyle;rounded=0;orthogonalLoop=1;jettySize=auto;html=1;exitX=0.5;exitY=0;exitDx=0;exitDy=0;entryX=0.5;entryY=1;entryDx=0;entryDy=0;" edge="1" parent="1" source="9qEQG3Xhn_lhqBpE3Py7-20" target="9qEQG3Xhn_lhqBpE3Py7-17">
          <mxGeometry relative="1" as="geometry"/>
        </mxCell>
        <mxCell id="9qEQG3Xhn_lhqBpE3Py7-20" value="&lt;font style=&quot;font-size: 18px&quot;&gt;&lt;b&gt;Mapper&lt;/b&gt;&lt;/font&gt;" style="shape=cylinder;whiteSpace=wrap;html=1;boundedLbl=1;backgroundOutline=1;fillColor=#E6E6E6;" vertex="1" parent="1">
          <mxGeometry x="130" y="-4286" width="80" height="90" as="geometry"/>
        </mxCell>
        <mxCell id="9qEQG3Xhn_lhqBpE3Py7-25" style="edgeStyle=orthogonalEdgeStyle;rounded=0;orthogonalLoop=1;jettySize=auto;html=1;entryX=0.5;entryY=1;entryDx=0;entryDy=0;" edge="1" parent="1" source="9qEQG3Xhn_lhqBpE3Py7-21" target="9qEQG3Xhn_lhqBpE3Py7-18">
          <mxGeometry relative="1" as="geometry"/>
        </mxCell>
        <mxCell id="9qEQG3Xhn_lhqBpE3Py7-21" value="&lt;font style=&quot;font-size: 18px&quot;&gt;&lt;b&gt;Mapper&lt;/b&gt;&lt;/font&gt;" style="shape=cylinder;whiteSpace=wrap;html=1;boundedLbl=1;backgroundOutline=1;fillColor=#E6E6E6;" vertex="1" parent="1">
          <mxGeometry x="280" y="-4286" width="80" height="90" as="geometry"/>
        </mxCell>
        <mxCell id="9qEQG3Xhn_lhqBpE3Py7-26" style="edgeStyle=orthogonalEdgeStyle;rounded=0;orthogonalLoop=1;jettySize=auto;html=1;exitX=0.5;exitY=0;exitDx=0;exitDy=0;entryX=0.375;entryY=1;entryDx=0;entryDy=0;" edge="1" parent="1" source="9qEQG3Xhn_lhqBpE3Py7-22" target="9qEQG3Xhn_lhqBpE3Py7-19">
          <mxGeometry relative="1" as="geometry"/>
        </mxCell>
        <mxCell id="9qEQG3Xhn_lhqBpE3Py7-22" value="&lt;font style=&quot;font-size: 18px&quot;&gt;&lt;b&gt;Mapper&lt;/b&gt;&lt;/font&gt;" style="shape=cylinder;whiteSpace=wrap;html=1;boundedLbl=1;backgroundOutline=1;fillColor=#E6E6E6;" vertex="1" parent="1">
          <mxGeometry x="415" y="-4286" width="80" height="90" as="geometry"/>
        </mxCell>
        <mxCell id="9qEQG3Xhn_lhqBpE3Py7-27" style="edgeStyle=orthogonalEdgeStyle;rounded=0;orthogonalLoop=1;jettySize=auto;html=1;exitX=0.5;exitY=0;exitDx=0;exitDy=0;entryX=0.625;entryY=1;entryDx=0;entryDy=0;" edge="1" parent="1" source="9qEQG3Xhn_lhqBpE3Py7-23" target="9qEQG3Xhn_lhqBpE3Py7-19">
          <mxGeometry relative="1" as="geometry"/>
        </mxCell>
        <mxCell id="9qEQG3Xhn_lhqBpE3Py7-23" value="&lt;font style=&quot;font-size: 18px&quot;&gt;&lt;b&gt;Mapper&lt;/b&gt;&lt;/font&gt;" style="shape=cylinder;whiteSpace=wrap;html=1;boundedLbl=1;backgroundOutline=1;fillColor=#E6E6E6;" vertex="1" parent="1">
          <mxGeometry x="520" y="-4286" width="80" height="90" as="geometry"/>
        </mxCell>
        <mxCell id="9qEQG3Xhn_lhqBpE3Py7-39" value="DO" style="whiteSpace=wrap;html=1;rounded=1;arcSize=50;align=center;verticalAlign=middle;container=1;recursiveResize=0;strokeWidth=1;autosize=1;spacing=4;treeFolding=1;treeMoving=1;fillColor=#CCE5FF;" vertex="1" parent="1">
          <mxGeometry x="750" y="-4500" width="60" height="30" as="geometry"/>
        </mxCell>
        <mxCell id="9qEQG3Xhn_lhqBpE3Py7-40" value="" style="edgeStyle=entityRelationEdgeStyle;startArrow=none;endArrow=none;segment=10;curved=1;exitX=0.999;exitY=0.1;exitDx=0;exitDy=0;exitPerimeter=0;" edge="1" target="9qEQG3Xhn_lhqBpE3Py7-39" parent="1" source="9qEQG3Xhn_lhqBpE3Py7-42">
          <mxGeometry relative="1" as="geometry">
            <mxPoint x="700" y="-4370" as="sourcePoint"/>
          </mxGeometry>
        </mxCell>
        <mxCell id="9qEQG3Xhn_lhqBpE3Py7-45" value="DTO" style="whiteSpace=wrap;html=1;rounded=1;arcSize=50;align=center;verticalAlign=middle;container=1;recursiveResize=0;strokeWidth=1;autosize=1;spacing=4;treeFolding=1;treeMoving=1;fillColor=#CCE5FF;" vertex="1" parent="1">
          <mxGeometry x="746" y="-4649" width="70" height="30" as="geometry"/>
        </mxCell>
        <mxCell id="9qEQG3Xhn_lhqBpE3Py7-46" value="" style="edgeStyle=entityRelationEdgeStyle;startArrow=none;endArrow=none;segment=10;curved=1;exitX=0.999;exitY=0.1;exitDx=0;exitDy=0;exitPerimeter=0;" edge="1" parent="1" target="9qEQG3Xhn_lhqBpE3Py7-45">
          <mxGeometry relative="1" as="geometry">
            <mxPoint x="620" y="-4551" as="sourcePoint"/>
          </mxGeometry>
        </mxCell>
      </root>
    </mxGraphModel>
  </diagram>
</mxfile>
